# xmcd CD database file
#
# Track frame offsets:
#	183
#	11020
#	22415
#	36048
#	48728
#	60570
#	74635
#	89795
#	102093
#	114643
#	127718
#	138168
#	149080
#	161710
#	173238
#	181545
#	193550
#	206248
#
# Disc length: 2893 seconds
#
# Revision: 0
# Processed by: cddbd v1.4PL0 Copyright (c) Steve Scherf et al.
# Submitted via: CDex 1.50
#
DISCID=0e0b4b12
DTITLE=Chuck Berry - Sweet Little Eighteen Hits
DYEAR=1994
DGENRE=Blues
TTITLE0=Brown Eyed handsome Man
TTITLE1=Roll Over Betthoven
TTITLE2=Too Much Monkey Business
TTITLE3=School Days
TTITLE4=Rock'n Roll Music
TTITLE5=Sweet Little Sixteen
TTITLE6=Reelin' and Rockin'
TTITLE7=Johnny B. Goode
TTITLE8=Around and Around
TTITLE9=Carol
TTITLE10=Memphis Tennessee
TTITLE11=Sweet Little Rock and Roller
TTITLE12=Little Queenie
TTITLE13=Back in the USA
TTITLE14=Let It Rock
TTITLE15=Nadine
TTITLE16=You Never Can Tell
TTITLE17=Promised Land
EXTD=YEAR: 1994
EXTT0=
EXTT1=
EXTT2=
EXTT3=
EXTT4=
EXTT5=
EXTT6=
EXTT7=
EXTT8=
EXTT9=
EXTT10=
EXTT11=
EXTT12=
EXTT13=
EXTT14=
EXTT15=
EXTT16=
EXTT17=
PLAYORDER=
